<svg xmlns="http://www.w3.org/2000/svg" viewBox="0 0 100 100" preserveAspectRatio="xMidYMid" width="25" height="25" style="shape-rendering: auto; display: block; background: transparent;" xmlns:xlink="http://www.w3.org/1999/xlink"><g><g transform="translate(50 50)">
  <g transform="scale(1)">
    <g transform="translate(-50 -50)">
      <g>
        <animateTransform dur="0.8333333333333334s" keyTimes="0;1" values="0 50 50;360 50 50" repeatCount="indefinite" type="rotate" attributeName="transform"></animateTransform>
        <path d="M50 50L50 0A50 50 0 0 1 100 50Z" fill="#ff0011" fill-opacity="1"></path>
      </g>
      <g>
        <animateTransform dur="1.1111111111111112s" keyTimes="0;1" values="0 50 50;360 50 50" repeatCount="indefinite" type="rotate" attributeName="transform"></animateTransform>
        <path transform="rotate(90 50 50)" d="M50 50L50 0A50 50 0 0 1 100 50Z" fill="#0200ff" fill-opacity="1"></path>
      </g>
      <g>
        <animateTransform dur="1.6666666666666667s" keyTimes="0;1" values="0 50 50;360 50 50" repeatCount="indefinite" type="rotate" attributeName="transform"></animateTransform>
        <path transform="rotate(180 50 50)" d="M50 50L50 0A50 50 0 0 1 100 50Z" fill="#ff5c00" fill-opacity="1"></path>
      </g>
      <g>
        <animateTransform dur="3.3333333333333335s" keyTimes="0;1" values="0 50 50;360 50 50" repeatCount="indefinite" type="rotate" attributeName="transform"></animateTransform>
        <path transform="rotate(270 50 50)" d="M50 50L50 0A50 50 0 0 1 100 50Z" fill="#00b1ff" fill-opacity="1"></path>
      </g>
    </g>
  </g>
</g><g></g></g><!-- [ldio] generated by https://loading.io --></svg>